<svg xmlns="http://www.w3.org/2000/svg" width="24.344" height="24.085" viewBox="0 0 24.344 24.085">
  <path id="b381bcbc5da0f1c6edf553e633c9ee1d" d="M22.923,14.613a1.444,1.444,0,0,1-1.445-1.441.446.446,0,0,0-.447-.447H3.336a.446.446,0,0,0-.447.447,1.443,1.443,0,0,1-1.441,1.441A.446.446,0,0,0,1,15.06v7.208a.446.446,0,0,0,.447.447,1.443,1.443,0,0,1,1.441,1.441.446.446,0,0,0,.447.447h17.7a.446.446,0,0,0,.447-.447,1.444,1.444,0,0,1,1.445-1.441.449.449,0,0,0,.447-.447V15.06A.449.449,0,0,0,22.923,14.613Zm-14.571,1.6H12.8a.447.447,0,0,1,0,.895H8.352a.447.447,0,0,1,0-.895Zm-2.31,4.918a.447.447,0,0,1-.895,0V16.193a.447.447,0,1,1,.895,0Zm9.972-.024H8.352a.447.447,0,1,1,0-.895h7.662a.447.447,0,1,1,0,.895Zm0-2H8.352a.447.447,0,1,1,0-.895h7.662a.447.447,0,1,1,0,.895Zm3.205,2.024a.447.447,0,0,1-.895,0V16.193a.447.447,0,1,1,.895,0Z" transform="matrix(0.719, 0.695, -0.695, 0.719, 16.372, -9.848)" fill="#0a0a0a"/>
</svg>
