<svg xmlns="http://www.w3.org/2000/svg" width="13.941" height="13.935" viewBox="0 0 13.941 13.935">
  <g id="_9e88333f4364db437efea205126eca5b" data-name="9e88333f4364db437efea205126eca5b" transform="translate(-3.05 -3.05)">
    <path id="Tracé_10195" data-name="Tracé 10195" d="M16.021,4.724l-.7-.7a3.373,3.373,0,0,0-4.745,0L4.026,10.577a3.373,3.373,0,0,0,0,4.745L4.7,16a3.362,3.362,0,0,0,2.361.988A3.32,3.32,0,0,0,9.421,16l6.552-6.552A3.3,3.3,0,0,0,16.021,4.724Zm-6,10.045L5.278,10.023l4.745-4.745,4.745,4.745Zm-.915.915a2.908,2.908,0,0,1-4.071,0l-.674-.674a2.908,2.908,0,0,1,0-4.071l.554-.554L9.662,15.13Zm6.576-6.576-.554.554L10.361,4.941l.554-.554a2.886,2.886,0,0,1,2.023-.843,2.845,2.845,0,0,1,2.023.843l.674.674A2.836,2.836,0,0,1,15.684,9.108Z"/>
    <path id="Tracé_10196" data-name="Tracé 10196" d="M20.145,17.3h-.289a.241.241,0,1,0,0,.482h.289a.241.241,0,1,0,0-.482Zm.939,1.71h.289a.241.241,0,0,0,0-.482h-.289a.228.228,0,0,0-.241.241A.241.241,0,0,0,21.084,19.01Zm1.228,1.228H22.6a.241.241,0,1,0,0-.482h-.289a.228.228,0,0,0-.241.241A.241.241,0,0,0,22.312,20.239Zm1.228,1.228h.289a.241.241,0,0,0,0-.482h-.289a.228.228,0,0,0-.241.241A.241.241,0,0,0,23.541,21.467ZM19.422,18.5a.228.228,0,0,0-.241-.241h-.289a.241.241,0,0,0,0,.482h.289A.241.241,0,0,0,19.422,18.5Zm.458,1.228a.228.228,0,0,0,.241.241h.289a.241.241,0,1,0,0-.482H20.12A.241.241,0,0,0,19.88,19.733Zm1.228,1.228a.228.228,0,0,0,.241.241h.289a.241.241,0,1,0,0-.482h-.289A.241.241,0,0,0,21.108,20.961Zm1.228,1.228a.228.228,0,0,0,.241.241h.289a.241.241,0,0,0,0-.482h-.289A.241.241,0,0,0,22.336,22.19Zm-3.9-2.7a.228.228,0,0,0-.241-.241H17.9a.241.241,0,0,0,0,.482h.289A.241.241,0,0,0,18.434,19.492Zm1.228,1.228a.228.228,0,0,0-.241-.241h-.289a.241.241,0,1,0,0,.482h.289A.241.241,0,0,0,19.663,20.72Zm.458,1.228a.228.228,0,0,0,.241.241h.289a.241.241,0,0,0,0-.482h-.289A.241.241,0,0,0,20.12,21.949Zm1.228,1.228a.228.228,0,0,0,.241.241h.289a.241.241,0,0,0,0-.482H21.59A.241.241,0,0,0,21.349,23.177ZM17.23,20.215h-.289a.241.241,0,1,0,0,.482h.289a.228.228,0,0,0,.241-.241A.241.241,0,0,0,17.23,20.215Zm1.228,1.228h-.289a.241.241,0,0,0,0,.482h.289a.228.228,0,0,0,.241-.241A.241.241,0,0,0,18.458,21.443Zm1.228,1.228H19.4a.241.241,0,0,0,0,.482h.289a.228.228,0,0,0,.241-.241A.241.241,0,0,0,19.687,22.672ZM20.915,23.9h-.289a.241.241,0,0,0,0,.482h.289a.241.241,0,1,0,0-.482Z" transform="translate(-10.362 -10.818)"/>
  </g>
</svg>
