<svg xmlns="http://www.w3.org/2000/svg" width="23.37" height="18.177" viewBox="0 0 23.37 18.177">
  <path id="Icon_awesome-cc-mastercard" data-name="Icon awesome-cc-mastercard" d="M19.593,17.628a.455.455,0,1,1-.454-.475A.453.453,0,0,1,19.593,17.628Zm-12.61-.475a.476.476,0,1,0,.442.475A.449.449,0,0,0,6.983,17.154Zm4.767-.012a.376.376,0,0,0-.385.353h.775A.373.373,0,0,0,11.75,17.142Zm4.374.012a.475.475,0,1,0,.454.475A.449.449,0,0,0,16.124,17.154Zm4.3,1.059c0,.012.012.02.012.045s-.012.02-.012.045a.142.142,0,0,0-.02.032.052.052,0,0,1-.045.02c-.012.012-.02.012-.045.012a.08.08,0,0,1-.045-.012c-.012,0-.02-.012-.032-.02s-.02-.02-.02-.032a.074.074,0,0,1-.012-.045c0-.02,0-.032.012-.045a.076.076,0,0,1,.02-.045.142.142,0,0,1,.032-.02.074.074,0,0,1,.045-.012c.02,0,.032,0,.045.012s.032.012.045.02S20.408,18.192,20.42,18.213Zm-.089.057c.02,0,.02-.012.032-.012a.049.049,0,0,0,0-.065c-.012,0-.02-.012-.045-.012h-.065v.142h.032v-.057H20.3l.045.057h.032l-.045-.053Zm3.039-14V18.549A1.948,1.948,0,0,1,21.422,20.5H1.947A1.948,1.948,0,0,1,0,18.549V4.268A1.948,1.948,0,0,1,1.947,2.32H21.422A1.948,1.948,0,0,1,23.37,4.268ZM2.6,9.932a5.617,5.617,0,0,0,8.723,4.682,6.051,6.051,0,0,1,0-9.352A5.617,5.617,0,0,0,2.6,9.932Zm9.088,4.414a5.618,5.618,0,0,0,0-8.825A5.618,5.618,0,0,0,11.685,14.346Zm-5.774,3.1a.569.569,0,0,0-.6-.6.58.58,0,0,0-.519.264.538.538,0,0,0-.495-.264.515.515,0,0,0-.43.219v-.179H3.538v1.489h.333c0-.767-.1-1.225.365-1.225.414,0,.333.414.333,1.225h.321c0-.742-.1-1.225.365-1.225.414,0,.333.406.333,1.225H5.92v-.933Zm1.822-.556H7.413v.179a.585.585,0,0,0-.475-.219.784.784,0,0,0,0,1.566.563.563,0,0,0,.475-.219v.187h.321Zm1.643,1.039c0-.609-.929-.333-.929-.617,0-.231.483-.195.751-.045L9.332,17c-.381-.247-1.225-.243-1.225.333s.929.337.929.609c0,.256-.548.235-.84.032l-.142.256C8.508,18.537,9.376,18.472,9.376,17.925Zm1.436.377-.089-.276c-.154.085-.495.179-.495-.166v-.674h.532v-.3h-.532v-.454H9.9v.454H9.587v.3H9.9v.678c0,.714.7.584.917.442Zm.54-.544h1.116c0-.657-.3-.917-.706-.917a.731.731,0,0,0-.738.783A.809.809,0,0,0,12.4,18.2l-.154-.243c-.316.26-.8.235-.889-.2Zm2.4-.872a.476.476,0,0,0-.617.179v-.179H12.8v1.489h.333v-.84a.339.339,0,0,1,.519-.341Zm.43.742c0-.463.471-.613.84-.341l.154-.264a.8.8,0,1,0,0,1.217l-.154-.264C14.647,18.241,14.18,18.083,14.18,17.628Zm2.706-.742h-.333v.179a.738.738,0,1,0,0,1.128v.187h.333Zm1.367,0a.488.488,0,0,0-.617.179v-.179h-.321v1.489h.321v-.84a.34.34,0,0,1,.519-.341Zm1.635-.6h-.321v.783a.738.738,0,1,0,0,1.128v.187h.321Zm.308-3.047v.187h.032v-.187h.077V13.2H20.12v.032H20.2Zm.268,5.023a.124.124,0,0,0-.012-.065c-.012-.012-.02-.032-.032-.045s-.032-.02-.045-.032-.045-.012-.065-.012a.431.431,0,0,1-.057.012.212.212,0,0,0-.045.032.063.063,0,0,0-.032.045.124.124,0,0,0-.012.065.118.118,0,0,0,.012.057.063.063,0,0,0,.032.045.141.141,0,0,0,.045.032.11.11,0,0,0,.057.012.124.124,0,0,0,.065-.012c.012-.012.032-.02.045-.032s.02-.032.032-.045A.118.118,0,0,0,20.465,18.257Zm.13-5.059h-.057l-.065.142-.065-.142h-.057v.219h.032v-.166l.065.142h.045l.057-.142v.166h.045Zm.179-3.266A5.617,5.617,0,0,0,12.05,5.258a6.051,6.051,0,0,1,0,9.352,5.617,5.617,0,0,0,8.723-4.678Z" transform="translate(0 -2.32)"/>
</svg>
