<svg xmlns="http://www.w3.org/2000/svg" width="9.345" height="10.268" viewBox="0 0 9.345 10.268">
  <g id="noun_Trash_3513304" transform="translate(0 0)">
    <g id="Groupe_251" data-name="Groupe 251" transform="translate(0 0)">
      <g id="Groupe_250" data-name="Groupe 250" transform="translate(0)">
        <path id="Tracé_1196" data-name="Tracé 1196" d="M188.478,273.308v.12a.425.425,0,0,1,.017.137v4.62a2.123,2.123,0,0,1-.633,1.506,2.15,2.15,0,0,1-1.506.616h-3.217a2.149,2.149,0,0,1-1.506-.616,2.123,2.123,0,0,1-.633-1.506v-4.62a.425.425,0,0,1,.017-.137v-.137a.348.348,0,0,1,.342-.291h6.777A.35.35,0,0,1,188.478,273.308Zm-.667,4.877v-4.5h-6.126v4.5a1.437,1.437,0,0,0,.428,1.01,1.407,1.407,0,0,0,1.027.428h3.217a1.407,1.407,0,0,0,1.027-.428A1.437,1.437,0,0,0,187.811,278.185Z" transform="translate(-180.076 -270.039)" fill="#fff" fill-rule="evenodd"/>
        <path id="Tracé_1197" data-name="Tracé 1197" d="M129.618,156h4.107a2.618,2.618,0,0,1,1.745.65,2.676,2.676,0,0,1,.873,1.643h0v.017a.356.356,0,0,1-.308.376h-8.693a.343.343,0,0,1-.342-.342c0-.034,0-.051.017-.068a2.626,2.626,0,0,1,2.6-2.276Zm4.107.684h-4.107a1.977,1.977,0,0,0-1.283.479,2.026,2.026,0,0,0-.565.839h7.8a2.025,2.025,0,0,0-.565-.839A1.977,1.977,0,0,0,133.725,156.684Z" transform="translate(-127 -155.042)" fill="#fff" fill-rule="evenodd"/>
        <path id="Tracé_1198" data-name="Tracé 1198" d="M255,352.342a.342.342,0,1,1,.685,0v3.919a.342.342,0,1,1-.685,0Z" transform="translate(-252.81 -347.688)" fill="#fff" fill-rule="evenodd"/>
        <path id="Tracé_1199" data-name="Tracé 1199" d="M380,352.342a.342.342,0,1,1,.685,0v3.919a.342.342,0,1,1-.685,0Z" transform="translate(-375.67 -347.688)" fill="#fff" fill-rule="evenodd"/>
        <path id="Tracé_1200" data-name="Tracé 1200" d="M505,352.342a.342.342,0,1,1,.684,0v3.919a.342.342,0,1,1-.684,0Z" transform="translate(-498.531 -347.688)" fill="#fff" fill-rule="evenodd"/>
        <path id="Tracé_1201" data-name="Tracé 1201" d="M352.821,100a.823.823,0,0,1,.582,1.4.826.826,0,0,1-1.164,0,.821.821,0,0,1,.582-1.4Zm.1.719a.171.171,0,1,0,.034.1A.243.243,0,0,0,352.924,100.719Z" transform="translate(-348.15 -100)" fill="#fff" fill-rule="evenodd"/>
      </g>
    </g>
  </g>
</svg>
